Patient4_TMGait_0pt7_02_left_45_EMG.mot
version=1
nRows=13
nColumns=33
inDegrees=no
endheader
time	1LAddLong	2LGlutMax	3LGlutMed	4LIliopsoas	5LSemiMemb	6LBicFemLong	7LRecFem	8LVastMed	9LVastLat	10LGasMed	11LTibAnt	12lTibPost	13LPeroneusLong	14LSol	15LExtDigLong	16LFlexDigLong	17RAddLong	18RGlutMax	19RGlutMed	20RIliopsoas	21RSemiMemb	22RBicFemLong	23RRecFem	24RVastMed	25RVastLat	26RGasMed	27RTibAnt	28RTibPost	29RPeroneusLong	30RSol	31RExtDigLong	32RFlexDigLong
51.51	0.018768	0.11795	-0.023346	0.009918	-0.000458	-0.065155	-0.068817	-0.004425	0.18478	0.014496	0.023651	0.006866	0.11414	-0.020905	-0.29816	-0.021667	0.037994	-0.78659	-0.14481	-0.025635	-0.048218	-0.062256	0.15152	0.042267	0.1149	-0.014648	0.029449	-0.031738	0.15671	-0.00061	-0.004883	0.008392
51.511	0.015717	0.067291	-0.032043	0.033569	0.006714	-0.080261	-0.044861	-0.009766	0.19836	0.008545	0.003815	0.007782	0.097504	-0.11749	-0.18112	-0.033875	0.033875	-0.72937	-0.68848	0.037842	-0.020599	-0.048218	0.051575	0.093842	0.25894	0.00351	0.01709	-0.036469	0.080109	-0.028534	-0.00412	0.00351
51.512	0.009613	0.040283	-0.076141	0.009308	0.008698	-0.048218	-0.026855	-0.003662	0.22247	-0.017242	-0.039978	-0.005493	0.066071	-0.12207	0.12848	-0.000763	0.034485	-0.64301	-0.24872	0.008698	0.17609	-0.12253	0.1268	-0.006866	0.47089	0.018463	0	-0.05188	0.26566	-0.05127	-0.003357	-0.002594
51.513	0.001221	0.03952	-0.028534	-0.041046	0.006561	-0.051117	-0.036621	0.006561	0.2359	-0.025787	-0.06073	0.004425	0.062714	-0.068817	0.07843	-0.023804	0.027466	-0.51666	0.75913	-0.065155	0.10254	-0.092316	0.19196	-0.066376	0.4184	0.008545	-0.043793	-0.010834	0.32593	-0.066833	-0.001831	-0.000458
51.514	-0.005035	0.028839	-0.018463	-0.022736	-0.003967	-0.038757	-0.038147	0.002289	0.24674	-0.03479	0.079193	0.007324	0.00412	-0.086365	-0.17639	-0.011597	0.019226	-0.54794	0.15839	-0.043945	-0.12833	-0.11276	0.25528	-0.047455	0.32257	0.002289	-0.077362	0.011444	-0.28976	0.062866	-0.006104	-0.005493
51.515	-0.007935	0.083618	0.000763	0.03418	0.001526	-0.018768	-0.033417	0.013123	0.25665	-0.041199	0.080109	0.007172	-0.044403	-0.069885	0.68176	-0.001678	-0.007019	-0.49744	0.016785	-0.020752	-0.38422	-0.055847	0.22415	-0.000153	0.22659	-0.002289	-0.053406	0.011444	-0.54718	-0.031433	-0.00885	0.002136
51.516	-0.009918	0.16007	-0.013123	0.074615	0.00473	-0.016785	-0.049133	0.009613	0.26169	-0.055237	0.009155	0.006714	-0.049744	0.006714	-0.20981	-0.014191	0.009613	-0.4773	0.3157	0.002899	-0.069275	-0.036316	0.007172	-0.11475	0.11307	-0.001068	-0.006561	0.001984	0.11108	-0.084076	-0.006561	0.008087
51.517	-0.006714	0.1355	-0.028687	0.083923	-0.008392	-0.019226	-0.064697	0.009003	0.28778	-0.061951	0.002747	0.00412	-0.006561	0.042572	0.14618	-0.005951	0.041504	-0.64041	-0.22659	0.13351	0.29434	-0.15762	-0.11536	-0.080414	0.029907	-0.007477	0.029144	-0.005188	0.59464	-0.13336	-0.00061	-0.001373
51.518	-0.013733	0.12924	-0.016937	0.077209	-0.014343	-0.019073	-0.046844	0.014191	0.289	-0.04364	0.09964	0.008545	-0.024872	0.014801	-0.076904	-0.024719	0.049438	-0.71259	-0.69	0.14694	0.18127	-0.2063	-0.20645	0.13428	-0.22919	-0.012054	0.08255	-0.008087	-0.1976	-0.005341	-0.002594	-0.004578
51.519	-0.011139	0.12573	-0.051422	0.045471	-0.015717	-0.005646	-0.042877	0.007477	0.27908	-0.054779	-0.18646	0.012054	0.033569	-0.021515	-0.25391	-0.016022	0.084991	-0.64346	-0.87189	0.032959	-0.13107	-0.1297	-0.25864	0.02121	-0.51804	-0.00351	0.13702	-0.009613	-0.29892	0.17425	-0.00412	0.003357
51.52	-0.008087	0.08255	-0.010986	-0.029907	-0.013885	-0.009003	-0.031281	0.013275	0.27542	-0.035858	-0.12482	-0.003357	0.021973	-0.049591	-0.34088	-0.009918	0.046997	-0.63721	-0.64407	-0.1004	-0.63782	0.014496	-0.26108	-0.11566	-0.43778	0.005035	0.10635	-0.006561	-0.28671	0.064392	-0.000763	0.001984
51.521	-0.005188	0.093384	0.063019	-0.068359	-0.00946	-0.019836	-0.032654	0.01236	0.27496	-0.041046	0.075989	0.002441	-0.019073	-0.070343	-0.24323	-0.004272	-0.026703	-0.59601	0.001984	-0.032349	-0.6488	0.019226	-0.19012	-0.014496	-0.12772	0.011749	0.036011	-0.01297	-0.090485	0.00351	-0.005341	0.004883
51.522	-0.003815	0.1265	0.021515	-0.046539	0.001068	-0.025482	-0.031891	0.011902	0.27313	-0.06958	0.12222	0.009918	0.028992	-0.046082	-0.21545	-0.001678	-0.062408	-0.56137	-0.27817	-0.001678	-0.45807	0.029297	-0.00946	-0.121	0.004272	0.022736	-0.073547	-0.007477	-0.29251	-0.024872	-0.002289	0.003815
